<svg width="80" height="80" viewBox="0 0 80 80" fill="none" xmlns="http://www.w3.org/2000/svg">
<path d="M73.2812 35.7438L59.1875 48.0438L63.4094 66.3563C63.6328 67.3136 63.569 68.3155 63.2261 69.2368C62.8832 70.1581 62.2763 70.9579 61.4813 71.5361C60.6863 72.1143 59.7385 72.4454 58.7563 72.4879C57.7742 72.5304 56.8013 72.2824 55.9594 71.775L39.9875 62.0875L24.05 71.775C23.208 72.2824 22.2352 72.5304 21.253 72.4879C20.2709 72.4454 19.3231 72.1143 18.5281 71.5361C17.7331 70.9579 17.1262 70.1581 16.7833 69.2368C16.4403 68.3155 16.3766 67.3136 16.6 66.3563L20.8156 48.0625L6.71876 35.7438C5.97316 35.1007 5.43402 34.2518 5.16893 33.3036C4.90385 32.3553 4.92463 31.3499 5.22867 30.4135C5.53271 29.477 6.10647 28.6511 6.878 28.0394C7.64954 27.4277 8.58449 27.0574 9.56563 26.975L28.1469 25.3656L35.4 8.06563C35.7788 7.15786 36.4177 6.38246 37.2362 5.83706C38.0548 5.29165 39.0164 5.00063 40 5.00063C40.9836 5.00063 41.9452 5.29165 42.7638 5.83706C43.5824 6.38246 44.2212 7.15786 44.6 8.06563L51.875 25.3656L70.45 26.975C71.4311 27.0574 72.3661 27.4277 73.1376 28.0394C73.9092 28.6511 74.4829 29.477 74.787 30.4135C75.091 31.3499 75.1118 32.3553 74.8467 33.3036C74.5816 34.2518 74.0425 35.1007 73.2969 35.7438H73.2812Z" fill="#F85C5C"/>
</svg>
