<svg width="80" height="80" viewBox="0 0 80 80" fill="none" xmlns="http://www.w3.org/2000/svg">
<path d="M30 10C30.7327 9.99994 31.445 10.2413 32.0267 10.6867L32.36 10.9767L41.38 20H63.3334C65.8841 19.9999 68.3384 20.9744 70.1942 22.7243C72.05 24.4741 73.167 26.867 73.3167 29.4133L73.3334 30V56.6667C73.3335 59.2174 72.3589 61.6717 70.6091 63.5275C68.8592 65.3834 66.4663 66.5004 63.92 66.65L63.3334 66.6667H16.6667C14.116 66.6668 11.6616 65.6923 9.80582 63.9424C7.95 62.1925 6.833 59.7996 6.68335 57.2533L6.66669 56.6667V20C6.66654 17.4493 7.6411 14.995 9.39097 13.1391C11.1408 11.2833 13.5337 10.1663 16.08 10.0167L16.6667 10H30Z" fill="#F85C5C"/>
</svg>
