<svg width="150" height="150" viewBox="0 0 150 150" fill="none" xmlns="http://www.w3.org/2000/svg">
<path d="M78.5665 19.0666L88.0577 48.2776C89.2291 51.8828 92.5887 54.3237 96.3794 54.3237H127.094C130.726 54.3237 132.237 58.9723 129.298 61.1075L104.45 79.1609C101.383 81.3891 100.1 85.3385 101.271 88.9437L110.762 118.155C111.885 121.61 107.93 124.483 104.991 122.347L80.1431 104.294C77.0763 102.066 72.9236 102.066 69.8569 104.294L45.0085 122.347C42.0696 124.483 38.1153 121.61 39.2379 118.155L48.7291 88.9437C49.9005 85.3385 48.6172 81.3891 45.5505 79.1609L20.7021 61.1075C17.7632 58.9723 19.2736 54.3237 22.9063 54.3237H53.6206C57.4113 54.3237 60.7709 51.8828 61.9423 48.2776L71.4335 19.0666C72.5561 15.6117 77.4439 15.6117 78.5665 19.0666Z" fill="#F85C5C" stroke="white" stroke-width="5"/>
</svg>
