<svg width="28" height="28" viewBox="0 0 28 28" fill="none" xmlns="http://www.w3.org/2000/svg">
<path d="M10.0181 9.60868L13.0491 3.50468C13.1373 3.32803 13.273 3.17945 13.441 3.0756C13.6089 2.97176 13.8025 2.91675 14 2.91675C14.1974 2.91675 14.391 2.97176 14.5589 3.0756C14.7269 3.17945 14.8626 3.32803 14.9508 3.50468L17.9818 9.60868L24.7578 10.5933C24.9532 10.6204 25.1371 10.702 25.2885 10.8286C25.4398 10.9552 25.5525 11.1218 25.6137 11.3094C25.6749 11.4969 25.6821 11.698 25.6345 11.8895C25.587 12.081 25.4865 12.2552 25.3446 12.3923L20.4423 17.1407L21.5996 23.849C21.7478 24.71 20.8378 25.3657 20.0596 24.9597L14 21.791L7.93912 24.9597C7.16212 25.3668 6.25212 24.71 6.40029 23.8478L7.55762 17.1395L2.65529 12.3912C2.5141 12.254 2.41425 12.0799 2.36708 11.8887C2.3199 11.6976 2.3273 11.497 2.38843 11.3098C2.44956 11.1227 2.56197 10.9564 2.71288 10.83C2.86379 10.7035 3.04715 10.622 3.24212 10.5945L10.0181 9.60868Z" fill="white" stroke="#D74A4A" stroke-width="3" stroke-linecap="round" stroke-linejoin="round"/>
</svg>
