<svg width="28" height="28" viewBox="0 0 28 28" fill="none" xmlns="http://www.w3.org/2000/svg">
<path d="M13.9999 4.66669C17.2514 4.66669 20.1401 6.13319 22.1969 7.94852C23.2294 8.85969 24.0799 9.88285 24.6796 10.9014C25.2688 11.9012 25.6666 12.985 25.6666 14C25.6666 15.015 25.2699 16.0989 24.6796 17.0987C24.0799 18.1172 23.2294 19.1404 22.1969 20.0515C20.1401 21.8669 17.2503 23.3334 13.9999 23.3334C10.7484 23.3334 7.85975 21.8669 5.80292 20.0515C4.77042 19.1404 3.91992 18.1172 3.32025 17.0987C2.72992 16.0989 2.33325 15.015 2.33325 14C2.33325 12.985 2.72992 11.9012 3.32025 10.9014C3.91992 9.88285 4.77042 8.85969 5.80292 7.94852C7.85975 6.13319 10.7496 4.66669 13.9999 4.66669ZM13.9999 7.00002C11.4519 7.00002 9.09059 8.15852 7.34759 9.69735C6.47959 10.4627 5.79359 11.2992 5.33042 12.0855C4.85675 12.8905 4.66659 13.5567 4.66659 14C4.66659 14.4434 4.85675 15.1095 5.33042 15.9145C5.79359 16.7009 6.47959 17.5362 7.34759 18.3027C9.09059 19.8415 11.4519 21 13.9999 21C16.5479 21 18.9093 19.8415 20.6523 18.3027C21.5203 17.5362 22.2063 16.7009 22.6694 15.9145C23.1431 15.1095 23.3333 14.4434 23.3333 14C23.3333 13.5567 23.1431 12.8905 22.6694 12.0855C22.2063 11.2992 21.5203 10.4639 20.6523 9.69735C18.9093 8.15852 16.5479 7.00002 13.9999 7.00002ZM13.9999 10.5C14.1026 10.5 14.2041 10.5043 14.3044 10.5129C14.0511 10.9572 13.9508 11.4724 14.019 11.9793C14.0871 12.4862 14.3199 12.9567 14.6816 13.3183C15.0432 13.68 15.5137 13.9128 16.0206 13.981C16.5275 14.0491 17.0428 13.9488 17.4871 13.6955C17.5484 14.3981 17.3961 15.1027 17.0501 15.7172C16.7042 16.3317 16.1806 16.8274 15.5481 17.1392C14.9156 17.4511 14.2036 17.5646 13.5055 17.4649C12.8074 17.3652 12.1557 17.0569 11.6358 16.5805C11.1158 16.104 10.752 15.4816 10.5918 14.7949C10.4317 14.1081 10.4827 13.3889 10.7383 12.7317C10.9938 12.0744 11.442 11.5097 12.024 11.1114C12.606 10.7132 13.2947 10.5001 13.9999 10.5Z" fill="#D74A4A"/>
</svg>
