<svg width="80" height="80" viewBox="0 0 80 80" fill="none" xmlns="http://www.w3.org/2000/svg">
<path d="M66.8733 42.1567L68.5967 35.7167C70.61 28.2 71.62 24.4434 70.8633 21.19C70.2636 18.6217 68.9157 16.2889 66.99 14.4867C64.5533 12.2034 60.7933 11.1967 53.2767 9.18335C45.76 7.16669 42 6.16002 38.75 6.91669C36.1816 7.51639 33.8488 8.86434 32.0467 10.79C30.09 12.8767 29.07 15.9334 27.5533 21.4867L26.74 24.5034L25.0167 30.9434C23 38.46 21.9933 42.2167 22.75 45.47C23.3497 48.0384 24.6977 50.3712 26.6233 52.1734C29.06 54.4567 32.82 55.4634 40.3367 57.48C47.11 59.2934 50.8333 60.29 53.8833 59.9134C54.2167 59.8734 54.5433 59.8134 54.8633 59.74C57.4309 59.1422 59.7636 57.7966 61.5667 55.8733C63.85 53.4333 64.8567 49.6734 66.8733 42.1567Z" fill="#F85C5C"/>
<path d="M8.35002 49.05L10.0734 55.49C12.0867 63.0066 13.0967 66.7666 15.38 69.2033C17.1822 71.126 19.5136 72.4715 22.08 73.07C25.3334 73.83 29.0934 72.8233 36.6134 70.81C44.1267 68.7966 47.8867 67.79 50.3234 65.5066C50.5234 65.3166 50.7234 65.12 50.91 64.92C49.7749 64.8167 48.6464 64.6497 47.53 64.42C45.21 63.96 42.4534 63.22 39.1934 62.3466L38.8367 62.25L38.7534 62.23C35.2067 61.28 32.2434 60.4833 29.8767 59.63C27.3867 58.73 25.1267 57.62 23.2034 55.82C20.5578 53.3413 18.7064 50.134 17.8834 46.6033C17.2834 44.04 17.4567 41.53 17.9234 38.9233C18.37 36.4266 19.17 33.4366 20.13 29.85L21.9134 23.2033L21.9734 22.97C15.5734 24.6933 12.2034 25.7133 9.95669 27.8166C8.03166 29.6202 6.68486 31.9541 6.08669 34.5233C5.32669 37.7733 6.33335 41.5333 8.35002 49.05Z" fill="#F85C5C"/>
</svg>
