<svg width="80" height="80" viewBox="0 0 80 80" fill="none" xmlns="http://www.w3.org/2000/svg">
<path d="M66.8734 42.1567L68.5967 35.7167C70.6101 28.2 71.6201 24.4433 70.8634 21.19C70.2637 18.6216 68.9157 16.2888 66.9901 14.4867C64.5534 12.2033 60.7934 11.1967 53.2767 9.18333C45.7601 7.16667 42.0001 6.16 38.7501 6.91667C36.1817 7.51638 33.8489 8.86432 32.0467 10.79C30.0901 12.8767 29.0701 15.9333 27.5534 21.4867L26.7401 24.5033L25.0167 30.9433C23.0001 38.46 21.9934 42.2167 22.7501 45.47C23.3498 48.0384 24.6977 50.3712 26.6234 52.1733C29.0601 54.4567 32.8201 55.4633 40.3367 57.48C47.1101 59.2933 50.8334 60.29 53.8834 59.9133C54.2167 59.8733 54.5434 59.8133 54.8634 59.74C57.431 59.1421 59.7637 57.7966 61.5667 55.8733C63.8501 53.4333 64.8567 49.6733 66.8734 42.1567Z" fill="white"/>
<path d="M8.35002 49.05L10.0734 55.49C12.0867 63.0067 13.0967 66.7667 15.38 69.2033C17.1822 71.126 19.5136 72.4715 22.08 73.07C25.3334 73.83 29.0934 72.8233 36.6134 70.81C44.1267 68.7967 47.8867 67.79 50.3234 65.5067C50.5234 65.3167 50.7234 65.12 50.91 64.92C49.7749 64.8167 48.6464 64.6498 47.53 64.42C45.21 63.96 42.4534 63.22 39.1934 62.3467L38.8367 62.25L38.7534 62.23C35.2067 61.28 32.2434 60.4833 29.8767 59.63C27.3867 58.73 25.1267 57.62 23.2034 55.82C20.5578 53.3414 18.7064 50.134 17.8834 46.6033C17.2834 44.04 17.4567 41.53 17.9234 38.9233C18.37 36.4267 19.17 33.4367 20.13 29.85L21.9134 23.2033L21.9734 22.97C15.5734 24.6933 12.2034 25.7133 9.95669 27.8167C8.03166 29.6202 6.68486 31.9542 6.08669 34.5233C5.32669 37.7733 6.33335 41.5333 8.35002 49.05Z" fill="white"/>
</svg>
