<svg width="80" height="80" viewBox="0 0 80 80" fill="none" xmlns="http://www.w3.org/2000/svg">
<g clip-path="url(#clip0_1_63)">
<path d="M56.6667 43.3333H43.3333V56.6667H36.6667V43.3333H23.3333V36.6667H36.6667V23.3333H43.3333V36.6667H56.6667M63.3333 10H16.6667C12.9667 10 10 12.9667 10 16.6667V63.3333C10 65.1014 10.7024 66.7971 11.9526 68.0474C13.2029 69.2976 14.8986 70 16.6667 70H63.3333C65.1014 70 66.7971 69.2976 68.0474 68.0474C69.2976 66.7971 70 65.1014 70 63.3333V16.6667C70 14.8986 69.2976 13.2029 68.0474 11.9526C66.7971 10.7024 65.1014 10 63.3333 10Z" fill="white"/>
</g>
<defs>
<clipPath id="clip0_1_63">
<rect width="80" height="80" fill="white"/>
</clipPath>
</defs>
</svg>
