<svg width="80" height="80" viewBox="0 0 80 80" fill="none" xmlns="http://www.w3.org/2000/svg">
<path d="M30 10C30.7326 9.99994 31.4449 10.2413 32.0266 10.6867L32.36 10.9767L41.38 20H63.3333C65.884 19.9999 68.3383 20.9744 70.1942 22.7243C72.05 24.4741 73.167 26.867 73.3166 29.4133L73.3333 30V56.6667C73.3334 59.2174 72.3589 61.6717 70.609 63.5275C68.8591 65.3834 66.4663 66.5004 63.92 66.65L63.3333 66.6667H16.6666C14.1159 66.6668 11.6616 65.6923 9.80576 63.9424C7.94994 62.1925 6.83293 59.7996 6.68329 57.2533L6.66663 56.6667V20C6.66648 17.4493 7.64104 14.995 9.3909 13.1391C11.1408 11.2833 13.5336 10.1663 16.08 10.0167L16.6666 10H30Z" fill="white"/>
</svg>
