<svg width="80" height="80" viewBox="0 0 80 80" fill="none" xmlns="http://www.w3.org/2000/svg">
<g clip-path="url(#clip0_5_79)">
<path fill-rule="evenodd" clip-rule="evenodd" d="M40 6.66669C21.59 6.66669 6.66663 21.59 6.66663 40C6.66663 58.41 21.59 73.3334 40 73.3334C58.41 73.3334 73.3333 58.41 73.3333 40C73.3333 21.59 58.41 6.66669 40 6.66669ZM28.3333 31.6667C28.3333 30.1346 28.6351 28.6175 29.2214 27.202C29.8077 25.7866 30.667 24.5005 31.7504 23.4171C32.8337 22.3338 34.1199 21.4744 35.5353 20.8881C36.9508 20.3018 38.4679 20 40 20C41.532 20 43.0491 20.3018 44.4646 20.8881C45.8801 21.4744 47.1662 22.3338 48.2495 23.4171C49.3329 24.5005 50.1922 25.7866 50.7786 27.202C51.3649 28.6175 51.6666 30.1346 51.6666 31.6667C51.6666 34.7609 50.4375 37.7283 48.2495 39.9163C46.0616 42.1042 43.0942 43.3334 40 43.3334C36.9058 43.3334 33.9383 42.1042 31.7504 39.9163C29.5625 37.7283 28.3333 34.7609 28.3333 31.6667ZM60.86 56.6133C58.3639 59.7512 55.1916 62.285 51.5797 64.0257C47.9678 65.7664 44.0095 66.6692 40 66.6667C35.9905 66.6692 32.0321 65.7664 28.4202 64.0257C24.8083 62.285 21.636 59.7512 19.14 56.6133C24.5433 52.7367 31.9166 50 40 50C48.0833 50 55.4566 52.7367 60.86 56.6133Z" fill="white"/>
</g>
<defs>
<clipPath id="clip0_5_79">
<rect width="80" height="80" fill="white"/>
</clipPath>
</defs>
</svg>
