<svg width="80" height="80" viewBox="0 0 80 80" fill="none" xmlns="http://www.w3.org/2000/svg">
<path d="M73.2812 35.7437L59.1874 48.0437L63.4093 66.3562C63.6327 67.3136 63.569 68.3155 63.226 69.2368C62.8831 70.1581 62.2762 70.9578 61.4812 71.5361C60.6862 72.1143 59.7384 72.4454 58.7563 72.4879C57.7741 72.5304 56.8013 72.2824 55.9593 71.775L39.9874 62.0875L24.0499 71.775C23.208 72.2824 22.2351 72.5304 21.253 72.4879C20.2709 72.4454 19.323 72.1143 18.5281 71.5361C17.7331 70.9578 17.1262 70.1581 16.7832 69.2368C16.4403 68.3155 16.3765 67.3136 16.5999 66.3562L20.8156 48.0625L6.7187 35.7437C5.9731 35.1007 5.43395 34.2518 5.16887 33.3036C4.90379 32.3553 4.92457 31.3499 5.22861 30.4135C5.53265 29.477 6.10641 28.6511 6.87794 28.0394C7.64947 27.4277 8.58443 27.0574 9.56557 26.975L28.1468 25.3656L35.3999 8.06561C35.7787 7.15785 36.4176 6.38245 37.2362 5.83704C38.0547 5.29164 39.0163 5.00061 39.9999 5.00061C40.9836 5.00061 41.9452 5.29164 42.7637 5.83704C43.5823 6.38245 44.2212 7.15785 44.5999 8.06561L51.8749 25.3656L70.4499 26.975C71.4311 27.0574 72.366 27.4277 73.1376 28.0394C73.9091 28.6511 74.4829 29.477 74.7869 30.4135C75.0909 31.3499 75.1117 32.3553 74.8466 33.3036C74.5816 34.2518 74.0424 35.1007 73.2968 35.7437H73.2812Z" fill="white"/>
</svg>
