<svg width="48" height="48" viewBox="0 0 48 48" fill="none" xmlns="http://www.w3.org/2000/svg">
<path d="M47.3779 24.7776L25.7799 0.760151C24.8704 -0.253384 23.1233 -0.253384 22.2138 0.760151L0.615848 24.7776C0.30551 25.1227 0.101809 25.5506 0.0294033 26.0092C-0.043002 26.4679 0.0189938 26.9377 0.207886 27.3618C0.59185 28.2289 1.45097 28.7861 2.39888 28.7861H7.19843V45.5983C7.19843 46.2352 7.45126 46.8461 7.90131 47.2966C8.35135 47.747 8.96174 48 9.5982 48H16.7975C17.434 48 18.0444 47.747 18.4944 47.2966C18.9445 46.8461 19.1973 46.2352 19.1973 45.5983V35.9913H28.7964V45.5983C28.7964 46.2352 29.0492 46.8461 29.4993 47.2966C29.9493 47.747 30.5597 48 31.1962 48H38.3955C39.032 48 39.6424 47.747 40.0924 47.2966C40.5424 46.8461 40.7953 46.2352 40.7953 45.5983V28.7861H45.5948C46.0596 28.7881 46.5149 28.6547 46.9052 28.4021C47.2955 28.1496 47.604 27.7889 47.793 27.364C47.982 26.939 48.0434 26.4682 47.9697 26.009C47.896 25.5497 47.6903 25.1219 47.3779 24.7776Z" fill="white"/>
</svg>
