<svg width="28" height="26" viewBox="0 0 28 26" fill="none" xmlns="http://www.w3.org/2000/svg">
<path d="M10.0181 8.60868L13.0491 2.50468C13.1373 2.32803 13.273 2.17945 13.441 2.0756C13.6089 1.97176 13.8025 1.91675 14 1.91675C14.1974 1.91675 14.391 1.97176 14.5589 2.0756C14.7269 2.17945 14.8626 2.32803 14.9508 2.50468L17.9818 8.60868L24.7578 9.59335C24.9532 9.62045 25.1371 9.70195 25.2885 9.82856C25.4398 9.95516 25.5525 10.1218 25.6137 10.3094C25.6749 10.4969 25.6821 10.698 25.6345 10.8895C25.587 11.081 25.4865 11.2552 25.3446 11.3923L20.4423 16.1407L21.5996 22.849C21.7478 23.71 20.8378 24.3657 20.0596 23.9597L14 20.791L7.93912 23.9597C7.16212 24.3668 6.25212 23.71 6.40029 22.8478L7.55762 16.1395L2.65529 11.3912C2.5141 11.254 2.41425 11.0799 2.36708 10.8887C2.3199 10.6976 2.3273 10.497 2.38843 10.3098C2.44956 10.1227 2.56197 9.95644 2.71288 9.82998C2.86379 9.70353 3.04715 9.62195 3.24212 9.59451L10.0181 8.60868Z" fill="#F8CBCB" stroke="#D74A4A" stroke-width="3" stroke-linecap="round" stroke-linejoin="round"/>
</svg>
