<svg width="33" height="34" viewBox="0 0 33 34" fill="none" xmlns="http://www.w3.org/2000/svg">
<path d="M16.5125 33.016C15.4032 33.016 14.5498 32.7173 13.9525 32.12C13.3552 31.48 13.0565 30.6053 13.0565 29.496V19.96H3.7125C2.64583 19.96 1.81383 19.6827 1.2165 19.128C0.619167 18.5307 0.3205 17.6987 0.3205 16.632C0.3205 15.5653 0.619167 14.7547 1.2165 14.2C1.81383 13.6027 2.64583 13.304 3.7125 13.304H13.0565V4.152C13.0565 3 13.3552 2.12533 13.9525 1.528C14.5498 0.930667 15.4245 0.632 16.5765 0.632C17.6858 0.632 18.5178 0.930667 19.0725 1.528C19.6698 2.12533 19.9685 3 19.9685 4.152V13.304H29.3125C30.4218 13.304 31.2538 13.6027 31.8085 14.2C32.4058 14.7547 32.7045 15.5653 32.7045 16.632C32.7045 17.6987 32.4058 18.5307 31.8085 19.128C31.2538 19.6827 30.4218 19.96 29.3125 19.96H19.9685V29.496C19.9685 30.6053 19.6698 31.48 19.0725 32.12C18.5178 32.7173 17.6645 33.016 16.5125 33.016Z" fill="white"/>
</svg>
