<svg width="48" height="48" viewBox="0 0 48 48" fill="none" xmlns="http://www.w3.org/2000/svg">
<rect width="48" height="48" rx="16" fill="#D74A4A"/>
<path d="M40.1239 25.2939L41.1579 21.4299C42.3659 16.9199 42.9719 14.6659 42.5179 12.7139C42.1581 11.1729 41.3493 9.77325 40.1939 8.69194C38.7319 7.32194 36.4759 6.71794 31.9659 5.50994C27.4559 4.29994 25.1999 3.69594 23.2499 4.14994C21.7089 4.50976 20.3092 5.31853 19.2279 6.47394C18.0539 7.72594 17.4419 9.55994 16.5319 12.8919L16.0439 14.7019L15.0099 18.5659C13.7999 23.0759 13.1959 25.3299 13.6499 27.2819C14.0098 28.823 14.8185 30.2226 15.9739 31.3039C17.4359 32.6739 19.6919 33.2779 24.2019 34.4879C28.2659 35.5759 30.4999 36.1739 32.3299 35.9479C32.5299 35.9239 32.7259 35.8879 32.9179 35.8439C34.4585 35.4852 35.8581 34.6779 36.9399 33.5239C38.3099 32.0599 38.9139 29.8039 40.1239 25.2939Z" fill="white"/>
<path d="M5.00999 29.43L6.04399 33.294C7.25199 37.804 7.85799 40.06 9.22799 41.522C10.3093 42.6756 11.7082 43.4829 13.248 43.842C15.2 44.298 17.456 43.694 21.968 42.486C26.476 41.278 28.732 40.674 30.194 39.304C30.314 39.19 30.434 39.072 30.546 38.952C29.8649 38.89 29.1878 38.7898 28.518 38.652C27.126 38.376 25.472 37.932 23.516 37.408L23.302 37.35L23.252 37.338C21.124 36.768 19.346 36.29 17.926 35.778C16.432 35.238 15.076 34.572 13.922 33.492C12.3346 32.0048 11.2238 30.0804 10.73 27.962C10.37 26.424 10.474 24.918 10.754 23.354C11.022 21.856 11.502 20.062 12.078 17.91L13.148 13.922L13.184 13.782C9.34399 14.816 7.32199 15.428 5.97399 16.69C4.81897 17.7721 4.01089 19.1725 3.65199 20.714C3.19599 22.664 3.79999 24.92 5.00999 29.43Z" fill="white"/>
</svg>
