<svg width="24" height="24" viewBox="0 0 24 24" fill="none" xmlns="http://www.w3.org/2000/svg">
<path d="M2.03606 12.322C1.96617 12.1147 1.96617 11.8903 2.03606 11.683C3.42306 7.51 7.36006 4.5 12.0001 4.5C16.6381 4.5 20.5731 7.507 21.9631 11.678C22.0331 11.885 22.0331 12.109 21.9631 12.317C20.5771 16.49 16.6401 19.5 12.0001 19.5C7.36206 19.5 3.42606 16.493 2.03606 12.322Z" stroke="#4E4E4E" stroke-width="1.5" stroke-linecap="round" stroke-linejoin="round"/>
<path d="M15 12C15 12.7956 14.6839 13.5587 14.1213 14.1213C13.5587 14.6839 12.7956 15 12 15C11.2044 15 10.4413 14.6839 9.87868 14.1213C9.31607 13.5587 9 12.7956 9 12C9 11.2044 9.31607 10.4413 9.87868 9.87868C10.4413 9.31607 11.2044 9 12 9C12.7956 9 13.5587 9.31607 14.1213 9.87868C14.6839 10.4413 15 11.2044 15 12Z" stroke="#4E4E4E" stroke-width="1.5" stroke-linecap="round" stroke-linejoin="round"/>
</svg>
